<svg xmlns="http://www.w3.org/2000/svg" viewBox="0 0 32 31.56"><defs><style>.cls-1{fill:#476053;}</style></defs><title>instagram</title><g id="Layer_2" data-name="Layer 2"><g id="Layer_1-2" data-name="Layer 1"><path class="cls-1" d="M0,9.6c.11-.75.19-1.5.32-2.25C1.09,3.15,4.07.28,8.33.14,13.46,0,18.61,0,23.74.13a8.25,8.25,0,0,1,8.14,8.24q.23,7.39,0,14.8a8.25,8.25,0,0,1-8.14,8.24c-5.13.19-10.28.19-15.41,0C3.69,31.24.48,27.8.17,23.15c0-.4-.11-.8-.17-1.2ZM16.05,28.66v.12c1.56,0,3.11,0,4.67,0,.79,0,1.58-.07,2.38-.12,3.62-.2,5.88-2.34,6-6q.17-6.91,0-13.83a5.67,5.67,0,0,0-6-5.95Q16,2.76,9,2.91a5.67,5.67,0,0,0-6,6q-.17,6.91,0,13.83c.09,3.64,2.35,5.82,6,6C11.35,28.74,13.7,28.66,16.05,28.66Z"/><path class="cls-1" d="M16.08,23.9a8.12,8.12,0,1,1,8.21-8.16A8.18,8.18,0,0,1,16.08,23.9Zm5.3-8.13a5.34,5.34,0,1,0-5.33,5.3A5.3,5.3,0,0,0,21.39,15.77Z"/><ellipse class="cls-1" cx="24.61" cy="7.3" rx="1.89" ry="1.9" transform="translate(-0.04 0.14) rotate(-0.33)"/></g></g></svg>