<svg xmlns="http://www.w3.org/2000/svg" viewBox="0 0 30.73 30.71"><defs><style>.cls-1{fill:#476053;}</style></defs><title>linkedin</title><g id="Layer_2" data-name="Layer 2"><g id="Layer_1-2" data-name="Layer 1"><path class="cls-1" d="M15.4,0h13a2.24,2.24,0,0,1,2.28,1.64,2.94,2.94,0,0,1,.08.78q0,12.92,0,25.84a2.27,2.27,0,0,1-2.44,2.44H2.41A2.25,2.25,0,0,1,0,28.32q0-13,0-26A2.23,2.23,0,0,1,2.4,0Zm1,13.54a.54.54,0,0,1-.05-.33c0-.47,0-.95,0-1.42,0-.22,0-.29-.28-.29q-1.9,0-3.8,0c-.24,0-.28.07-.28.29q0,7,0,14.08c0,.26.09.29.31.28,1.31,0,2.61,0,3.92,0,.25,0,.31-.06.31-.31,0-2.29,0-4.58,0-6.87a11.59,11.59,0,0,1,.07-1.26,2.51,2.51,0,0,1,2.68-2.57,2,2,0,0,1,2.19,1.71,6.68,6.68,0,0,1,.18,1.61q0,3.69,0,7.39c0,.25.07.31.31.31q2,0,3.95,0c.26,0,.31-.08.31-.32,0-2.51,0-5,0-7.54a13.53,13.53,0,0,0-.39-3.7,4.25,4.25,0,0,0-2.54-3,6.63,6.63,0,0,0-2.33-.42,5.12,5.12,0,0,0-3.57,1.18A5,5,0,0,0,16.38,13.54ZM9.1,18.84c0-2.34,0-4.68,0-7,0-.25-.07-.32-.32-.31-1.31,0-2.61,0-3.92,0-.22,0-.31,0-.31.29q0,7.05,0,14.11c0,.22.06.26.27.26q2,0,4,0c.24,0,.3-.06.3-.3C9.1,23.52,9.1,21.18,9.1,18.84ZM6.82,9.51A2.64,2.64,0,1,0,4.21,6.84,2.64,2.64,0,0,0,6.82,9.51Z"/></g></g></svg>