<svg xmlns="http://www.w3.org/2000/svg" viewBox="0 0 20 20"><defs><style>.cls-1{fill:#262827;}</style></defs><title>search</title><g id="Layer_2" data-name="Layer 2"><g id="Layer_1-2" data-name="Layer 1"><path class="cls-1" d="M7.2,0h.62a3.59,3.59,0,0,0,.39.08,7.11,7.11,0,0,1,3.58,1.31,7.42,7.42,0,0,1,2,10.12.42.42,0,0,0,.07.63c1.81,1.79,3.62,3.58,5.4,5.4A6.27,6.27,0,0,1,20,18.67v.18A1.54,1.54,0,0,1,18.84,20h-.18a6.48,6.48,0,0,1-1.13-.72c-1.42-1.38-2.82-2.79-4.21-4.2-.49-.49-1-1-1.42-1.49l-.4.24A7.46,7.46,0,0,1,.21,9.08C.12,8.67.07,8.24,0,7.82V7.2a3.52,3.52,0,0,0,.08-.38A7.42,7.42,0,0,1,5.68.27C6.18.15,6.69.09,7.2,0Zm.29,2.54a5,5,0,0,0,0,10,5,5,0,1,0,0-10Z"/></g></g></svg>