<svg xmlns="http://www.w3.org/2000/svg" viewBox="0 0 27.01 22.21"><defs><style>.cls-1{fill:#476053;}</style></defs><title>twitter</title><g id="Layer_2" data-name="Layer 2"><g id="Layer_1-2" data-name="Layer 1"><path class="cls-1" d="M0,19.71a11.46,11.46,0,0,0,8.2-2.29A5.81,5.81,0,0,1,3,13.5a5.79,5.79,0,0,0,2.33-.1A5.78,5.78,0,0,1,1.05,7.83a6,6,0,0,0,2.32.66c0-.2-.17-.26-.28-.35A5.65,5.65,0,0,1,1.7,1.36c.15-.28.21-.31.43-.05A15.74,15.74,0,0,0,11,6.58a13.33,13.33,0,0,0,2.05.27c.27,0,.35,0,.3-.34A5.62,5.62,0,0,1,18.24,0a5.49,5.49,0,0,1,4.51,1.5.61.61,0,0,0,.66.16A14.27,14.27,0,0,0,26.48.48a5.71,5.71,0,0,1-2.19,3A13.77,13.77,0,0,0,27,2.82a1.54,1.54,0,0,1-.54.92,11.36,11.36,0,0,1-1.7,1.61.62.62,0,0,0-.27.59,15.9,15.9,0,0,1-3.67,10.58A14.72,14.72,0,0,1,11.24,22a16.19,16.19,0,0,1-9-1.09A15.17,15.17,0,0,1,0,19.71Z"/></g></g></svg>